<svg xmlns="http://www.w3.org/2000/svg" viewBox="0 0 720 450" role="img" aria-labelledby="H28-title H28-desc"><title id="H28-title">极值与闭区间最值：别漏端点</title><desc id="H28-desc">f(x)=x³−3x，范围[−2,2]。导数在(−2,−1)、(1,2)为正，在(−1,1)为负。两个驻点与两个端点的函数值都要比较；本例最大值、最小值各在两处取得。</desc><defs><clipPath id="H28-clip"><rect x="72" y="55" width="485" height="325"/></clipPath></defs><style>svg text{font-family:'Microsoft YaHei','PingFang SC',sans-serif;fill:#203833;font-size:18px}svg .title{font-size:22px;font-weight:bold}svg .small{font-size:16px}svg .label{font-size:18px}svg .line{stroke:#245c4d;stroke-width:3;fill:none}svg .axis{stroke:#91a69b;stroke-width:1.5}svg .dash{stroke:#ad7138;stroke-width:2.5;stroke-dasharray:7 5;fill:none}svg .shape{stroke:#245c4d;stroke-width:2;fill:#e8f0e7}svg .curve{stroke:#245c4d;stroke-width:3;fill:none}svg .highlight{stroke:#b26e36;stroke-width:3;fill:none}svg .faint{stroke:#b9c7bd;stroke-width:2;fill:none}</style><rect width="720" height="450" rx="12" fill="#fffefa"/><text x="28" y="32" class="title">极值与闭区间最值：别漏端点</text><line x1="72" y1="217.5" x2="557" y2="217.5" class="axis"/><line x1="314.5" y1="55" x2="314.5" y2="380" class="axis"/><text x="566" y="221.5" class="label">x</text><text x="296.5" y="51" class="label">y</text><polyline points="112.41666666666666,325.8333333333333 114.4375,316.21290000000005 116.45833333333333,306.8498666666666 118.47916666666666,297.7416333333333 120.5,288.88559999999995 122.52083333333334,280.2791666666667 124.54166666666667,271.9197333333333 126.5625,263.8046999999999 128.58333333333331,255.93146666666667 130.60416666666666,248.29743333333337 132.625,240.90000000000003 134.64583333333331,233.7365666666667 136.66666666666669,226.8045333333333 138.6875,220.10129999999998 140.70833333333331,213.6242666666666 142.72916666666669,207.37083333333334 144.75,201.33839999999998 146.77083333333334,195.52436666666668 148.79166666666663,189.92613333333338 150.8125,184.54110000000003 152.83333333333331,179.36666666666667 154.85416666666666,174.40023333333335 156.875,169.63920000000002 158.89583333333331,165.08096666666668 160.91666666666666,160.72293333333334 162.9375,156.5625 164.95833333333331,152.5970666666667 166.97916666666669,148.8240333333333 169,145.2408 171.02083333333331,141.8447666666666 173.04166666666669,138.63333333333335 175.0625,135.6039 177.08333333333334,132.75386666666665 179.10416666666669,130.0806333333333 181.125,127.58159999999998 183.14583333333331,125.25416666666666 185.16666666666666,123.09573333333338 187.1875,121.1037 189.20833333333331,119.27546666666666 191.22916666666666,117.60843333333332 193.25,116.10000000000002 195.27083333333331,114.74756666666673 197.29166666666666,113.54853333333335 199.31249999999997,112.50029999999998 201.33333333333334,111.6002666666667 203.35416666666666,110.84583333333336 205.37499999999997,110.2344 207.39583333333334,109.76336666666663 209.41666666666666,109.43013333333329 211.4375,109.2321 213.45833333333334,109.16666666666663 215.47916666666666,109.23123333333331 217.5,109.42319999999995 219.52083333333334,109.73996666666665 221.54166666666669,110.17893333333336 223.5625,110.73750000000001 225.58333333333334,111.41306666666668 227.60416666666666,112.20303333333334 229.62499999999997,113.10479999999995 231.64583333333334,114.11576666666667 233.66666666666666,115.23333333333335 235.68749999999997,116.45490000000001 237.70833333333334,117.77786666666668 239.72916666666666,119.19963333333334 241.75,120.7176 243.77083333333334,122.32916666666671 245.79166666666666,124.03173333333334 247.8125,125.82270000000003 249.83333333333334,127.69946666666667 251.85416666666666,129.65943333333334 253.875,131.70000000000005 255.89583333333331,133.81856666666667 257.91666666666663,136.01253333333332 259.9375,138.2793 261.95833333333337,140.61626666666663 263.97916666666663,143.02083333333334 266,145.4904 268.02083333333337,148.02236666666664 270.04166666666663,150.6141333333333 272.0625,153.26309999999998 274.08333333333337,155.9666666666667 276.10416666666663,158.72223333333338 278.125,161.5272 280.14583333333326,164.37896666666666 282.1666666666667,167.2749333333333 284.1875,170.21249999999998 286.20833333333337,173.18906666666666 288.22916666666663,176.20203333333333 290.25,179.2488 292.2708333333333,182.32676666666669 294.2916666666667,185.43333333333337 296.3125,188.5659 298.33333333333337,191.72186666666667 300.35416666666663,194.89863333333335 302.375,198.09359999999998 304.3958333333333,201.30416666666665 306.41666666666663,204.52773333333334 308.4375,207.7617 310.4583333333333,211.00346666666667 312.4791666666667,214.25043333333332 314.5,217.5 316.5208333333333,220.74956666666668 318.54166666666663,223.99653333333333 320.5625,227.2383 322.58333333333337,230.47226666666668 324.6041666666667,233.69583333333335 326.625,236.90640000000002 328.6458333333333,240.1013666666667 330.6666666666667,243.27813333333336 332.68750000000006,246.43410000000003 334.70833333333337,249.5666666666667 336.7291666666667,252.67323333333337 338.75,255.75120000000004 340.7708333333333,258.79796666666664 342.7916666666667,261.8109333333333 344.8125,264.78749999999997 346.8333333333333,267.72506666666663 348.85416666666663,270.62103333333334 350.875,273.4728 352.8958333333333,276.27776666666665 354.9166666666667,279.0333333333333 356.9375,281.7369 358.9583333333333,284.38586666666663 360.9791666666667,286.9776333333333 363,289.5096 365.0208333333333,291.9791666666667 367.0416666666667,294.38373333333334 369.0625,296.7207 371.08333333333337,298.9874666666667 373.1041666666667,301.18143333333336 375.125,303.3 377.1458333333333,305.3405666666667 379.1666666666667,307.30053333333336 381.18750000000006,309.1773 383.20833333333337,310.9682666666667 385.2291666666667,312.67083333333335 387.25,314.28240000000005 389.2708333333333,315.80036666666666 391.2916666666667,317.2221333333333 393.3125,318.5451 395.3333333333333,319.76666666666665 397.35416666666663,320.8842333333333 399.37499999999994,321.8952 401.39583333333337,322.79696666666666 403.4166666666667,323.5869333333333 405.4375,324.2625 407.4583333333333,324.82106666666664 409.47916666666663,325.26003333333335 411.5,325.5768 413.52083333333337,325.7687666666667 415.5416666666667,325.8333333333333 417.5625,325.7679 419.5833333333333,325.56986666666666 421.6041666666667,325.2366333333333 423.625,324.7656 425.64583333333337,324.15416666666664 427.6666666666667,323.3997333333333 429.6875,322.4997 431.70833333333337,321.45146666666665 433.7291666666667,320.25243333333333 435.75,318.9 437.77083333333337,317.3915666666667 439.7916666666667,315.7245333333333 441.8125,313.8963 443.8333333333333,311.9042666666667 445.85416666666663,309.74583333333334 447.875,307.4184 449.8958333333333,304.9193666666667 451.9166666666667,302.2461333333334 453.9375,299.3961 455.9583333333333,296.3666666666667 457.97916666666663,293.15523333333334 460,289.7592 462.02083333333337,286.1759666666667 464.0416666666667,282.4029333333333 466.0625,278.4375 468.0833333333333,274.27706666666666 470.10416666666663,269.91903333333335 472.12500000000006,265.3608 474.14583333333337,260.59976666666665 476.1666666666667,255.63333333333333 478.18749999999994,250.4589 480.2083333333333,245.07386666666665 482.22916666666674,239.4756333333333 484.25000000000006,233.6616 486.2708333333333,227.62916666666663 488.2916666666667,221.37573333333327 490.31250000000006,214.89869999999993 492.33333333333337,208.19546666666676 494.3541666666667,201.26343333333344 496.37499999999994,194.10000000000008 498.3958333333333,186.70256666666674 500.4166666666667,179.0685333333334 502.4375,171.19530000000006 504.4583333333333,163.08026666666672 506.4791666666667,154.72083333333336 508.50000000000006,146.11440000000005 510.5208333333333,137.25836666666672 512.5416666666666,128.15013333333337 514.5625,118.78709999999995 516.5833333333334,109.16666666666663" class="curve" clip-path="url(#H28-clip)"/><circle cx="112.41666666666666" cy="325.8333333333333" r="5" fill="#245c4d"/><circle cx="213.45833333333334" cy="109.16666666666663" r="5" fill="#245c4d"/><circle cx="415.5416666666667" cy="325.8333333333333" r="5" fill="#245c4d"/><circle cx="516.5833333333334" cy="109.16666666666663" r="5" fill="#245c4d"/><text x="80.41666666666666" y="352.8333333333333" class="label">(−2,−2)</text><text x="158.45833333333334" y="97.16666666666663" class="label">(−1,2)</text><text x="393.5416666666667" y="352.8333333333333" class="label">(1,−2)</text><text x="508.58333333333337" y="97.16666666666663" class="label">(2,2)</text><text x="112" y="420" class="label">导数符号：   ＋             −              ＋</text></svg>